<svg id="Слой_1" data-name="Слой 1" xmlns="http://www.w3.org/2000/svg" viewBox="0 0 284.53 77.36"><defs><style>.cls-1{fill:#dc092e;fill-rule:evenodd;}.cls-2{fill:#fff;}.cls-3{fill:#060703;}</style></defs><path class="cls-1" d="M3.53,39.68h0C1.44,61.18,17,78.36,38.33,78.36S77.16,60.88,81,39.68L87.91,1H46.1C24.59,1,5.77,18.17,3.53,39.68Z" transform="translate(-3.34 -1)"/><path class="cls-2" d="M46.55,29.22l1.19-4.48H62.82l2.09-11.65H40a1.49,1.49,0,0,0-1.19.9L34.3,38a.66.66,0,0,0,.15.75c.15.3.45.3.74.3,4.49-.6,10.31.15,9.41,6.27C44,48.94,41.47,51,37.58,51H28.32l-1.94,10.6H34.9c11.05.3,20.9-5.23,23-17.32.74-4.78,0-8.67-2.54-11.5a14.13,14.13,0,0,0-8.81-3.59Z" transform="translate(-3.34 -1)"/><path class="cls-3" d="M286.47,32.29Zm-145.77-8a.65.65,0,0,0-.69-.64h-9.55a1,1,0,0,0-.91.63L114.92,60.89a.69.69,0,0,0,.63,1h8.71a1,1,0,0,0,.93-.7l7.1-21.39.33,21.39a.65.65,0,0,0,.69.7h8.2a1,1,0,0,0,1-1L140.7,24.28ZM105.32,47.13H96.78a.69.69,0,0,1-.55-.89l1.31-7.33a.9.9,0,0,1,.81-.83h8.82c0-.11,0-.22,0-.32a9.36,9.36,0,0,0-.06-1.17h0a6.49,6.49,0,0,0-.21-1.1,5.94,5.94,0,0,0-.38-1h0v0a3.76,3.76,0,0,0-.55-.85,3.82,3.82,0,0,0-.77-.67h0a3.23,3.23,0,0,0-1-.43,4.66,4.66,0,0,0-1.24-.16h0a10,10,0,0,0-1.1.06,10.32,10.32,0,0,0-1.09.18c-.35.08-.7.18-1,.29a8.78,8.78,0,0,0-.94.38h0l-.11,0a.62.62,0,0,1-.79-.6L97.29,26a1,1,0,0,1,.54-1q.47-.21,1-.42c.37-.15.74-.28,1.12-.4s.85-.27,1.29-.38.87-.19,1.38-.28a15.42,15.42,0,0,1,1.54-.19c.51-.05,1.06-.07,1.64-.07h0a13.64,13.64,0,0,1,2.56.22,10,10,0,0,1,4,1.67,8.76,8.76,0,0,1,1.49,1.36h0a10.34,10.34,0,0,1,1.14,1.63,11.89,11.89,0,0,1,.86,1.88h0a19.14,19.14,0,0,1,.57,2,18.07,18.07,0,0,1,.33,2.16q.1,1.11.12,2.22c0,.72,0,1.46-.05,2.22v.06q-.08,1.16-.21,2.25h0c-.09.7-.19,1.41-.32,2.13v.08a36.4,36.4,0,0,1-1.07,4.35,27.83,27.83,0,0,1-1.54,3.85,25.18,25.18,0,0,1-1.92,3.29h0a20.53,20.53,0,0,1-2.27,2.74A18.12,18.12,0,0,1,107,59.52h0a15.81,15.81,0,0,1-2.81,1.55,15.21,15.21,0,0,1-6,1.24h0c-.51,0-1,0-1.53-.07s-1-.1-1.41-.18h0l-1.25-.27c-.37-.1-.73-.21-1.07-.33h0c-.31-.11-.61-.22-.88-.34a5.74,5.74,0,0,1-.73-.34h0a.8.8,0,0,1-.28-1l2.64-7a.61.61,0,0,1,0-.12.77.77,0,0,1,1-.47,6.26,6.26,0,0,0,.8.35c.27.1.55.19.85.27h0a8.58,8.58,0,0,0,2,.23h0a7.79,7.79,0,0,0,1.57-.17,5.58,5.58,0,0,0,1.27-.43h0a6.46,6.46,0,0,0,2-1.54h0a10.33,10.33,0,0,0,.78-1.06h0a13.28,13.28,0,0,0,.65-1.18q.3-.63.54-1.26h0l.12-.31Zm55.47-9.39h7.26a.7.7,0,0,1,.56.89l-1.24,6.89a.92.92,0,0,1-.82.84h-7.3l-1.17,6.56h8.23a.71.71,0,0,1,.56.9L165.58,61a.92.92,0,0,1-.82.84h-17.4a.7.7,0,0,1-.56-.89l6.53-36.51a.9.9,0,0,1,.81-.84H171a.7.7,0,0,1,.56.89l-1.29,7.22a.93.93,0,0,1-.82.84h-7.69l-.92,5.15Zm40.74,24.14H194.1a.67.67,0,0,1-.6-.84l1.44-11.45v0c.08-.68.19-1.53.31-2.44l.11-.87v0l.15-1-.17.43h0l-.63,1.61h0l-.15.4h0c-.25.65-.47,1.21-.65,1.66h0l-4.6,11.21a.87.87,0,0,1-.77.62h-6.07a.65.65,0,0,1-.62-.68l-.48-11.26h0l0-.87v-.07l0-1.12h0l0-1.21v-.06l0-1.15-.39,1.65h0l-.41,1.73v0l-.36,1.55v0l-2.65,11.48a.91.91,0,0,1-.8.73h-7.22a.73.73,0,0,1-.47-1l9.34-36.52a.91.91,0,0,1,.81-.75h8.78a.65.65,0,0,1,.62.7l.23,11.71v0c.06,2.14.1,3.68.14,5.24l0,1.38h0c0,.67,0,1.35,0,2.05.23-.68.47-1.39.73-2.11.37-1,.76-2.14,1.18-3.29s.82-2.24,1.24-3.37h0l4.42-11.71a.87.87,0,0,1,.78-.65H206a.67.67,0,0,1,.61.83L202.36,61v0a.93.93,0,0,1-.83.84Zm19.64-24.14h7.25a.7.7,0,0,1,.56.89l-1.23,6.89a.93.93,0,0,1-.82.84h-7.3l-1.18,6.56h8.24a.7.7,0,0,1,.55.9L226,61a.92.92,0,0,1-.82.84h-17.4a.7.7,0,0,1-.56-.89l6.53-36.51a.92.92,0,0,1,.82-.84h16.8a.7.7,0,0,1,.56.89l-1.29,7.22a.93.93,0,0,1-.82.84h-7.68l-.92,5.15ZM230.82,61l6.53-36.51a.91.91,0,0,1,.82-.84h8.45a.69.69,0,0,1,.55.89L244.8,37.85h4.75l2.39-13.37a.92.92,0,0,1,.82-.84h8.45a.7.7,0,0,1,.56.89L255.24,61a.91.91,0,0,1-.82.84H246a.69.69,0,0,1-.55-.89l2.43-13.65H243.1L240.65,61a.92.92,0,0,1-.82.84h-8.45a.7.7,0,0,1-.56-.89Zm43.29.89h-8.45a.7.7,0,0,1-.56-.89l5-27.86h-5.63a.69.69,0,0,1-.55-.89l1.38-7.76h0a.9.9,0,0,1,.81-.84h21.2a.7.7,0,0,1,.56.89l-1.39,7.76a.92.92,0,0,1-.82.84h-5.73l-5,27.91a.92.92,0,0,1-.82.84Z" transform="translate(-3.34 -1)"/></svg>